<svg width="25" height="25" viewBox="0 0 25 25" fill="none" xmlns="http://www.w3.org/2000/svg">
<path d="M10.9071 13.5994C11.1868 13.7614 11.3759 13.9971 11.4767 14.3029C11.5222 14.6573 11.4845 14.935 11.2817 15.2288C10.9296 15.6527 10.53 16.0359 10.1402 16.4246C10.0701 16.4947 9.99989 16.5649 9.92974 16.6351C9.74059 16.8242 9.5513 17.0132 9.36197 17.2022C9.16364 17.4002 8.96546 17.5984 8.76726 17.7965C8.3925 18.1711 8.01763 18.5456 7.64271 18.92C7.21563 19.3465 6.78869 19.7732 6.36176 20.1999C5.48407 21.077 4.60622 21.954 3.72825 22.8309C3.78843 22.8311 3.84862 22.8312 3.91063 22.8314C4.4785 22.8332 5.04635 22.836 5.61421 22.8398C5.90614 22.8418 6.19806 22.8433 6.48999 22.8441C6.77185 22.8448 7.05369 22.8465 7.33554 22.8488C7.44294 22.8496 7.55034 22.8499 7.65774 22.85C7.80847 22.8501 7.95914 22.8514 8.10986 22.853C8.17611 22.8526 8.17611 22.8526 8.2437 22.8523C8.60386 22.8581 8.85346 22.9581 9.12838 23.1903C9.37156 23.4821 9.40839 23.7141 9.39774 24.0886C9.36896 24.3588 9.29256 24.5364 9.09164 24.7207C8.83738 24.9193 8.66086 24.981 8.33553 24.9822C8.30344 24.9824 8.27135 24.9826 8.23829 24.9828C8.13056 24.9833 8.02282 24.9835 7.91509 24.9837C7.83792 24.984 7.76075 24.9843 7.68358 24.9846C7.42995 24.9857 7.17631 24.9862 6.92268 24.9867C6.83533 24.9869 6.74798 24.9871 6.66063 24.9873C6.25019 24.9882 5.83975 24.9889 5.42931 24.9893C4.95576 24.9898 4.48222 24.9911 4.00868 24.993C3.64253 24.9945 3.27638 24.9952 2.91023 24.9954C2.69161 24.9955 2.473 24.9959 2.25439 24.9972C2.04859 24.9983 1.84281 24.9985 1.637 24.998C1.56165 24.998 1.48629 24.9983 1.41094 24.9989C1.02 25.0022 0.700413 25.0033 0.365726 24.7801C0.265407 24.681 0.265407 24.681 0.19821 24.5822C0.163628 24.5331 0.163628 24.5331 0.128347 24.483C0.0181859 24.2974 0.0181938 24.1408 0.0174293 23.9294C0.0172501 23.8973 0.017071 23.8653 0.0168864 23.8322C0.0163489 23.7245 0.0161612 23.6167 0.0159755 23.509C0.0156702 23.4318 0.0153463 23.3547 0.0150051 23.2775C0.0139799 23.0239 0.0134748 22.7702 0.0129893 22.5166C0.012792 22.4293 0.0125917 22.3419 0.0123877 22.2546C0.0114592 21.8441 0.0107658 21.4337 0.0103599 21.0233C0.00988383 20.5497 0.0086013 20.0762 0.00663153 19.6027C0.00516085 19.2365 0.00444012 18.8704 0.0042788 18.5042C0.00416434 18.2856 0.00372847 18.067 0.00250161 17.8484C0.00136535 17.6426 0.00116205 17.4368 0.00166209 17.231C0.0016862 17.1557 0.00137896 17.0803 0.000708807 17.005C-0.0025723 16.614 -0.00368711 16.2945 0.21953 15.9598C0.318708 15.8595 0.318708 15.8595 0.417504 15.7923C0.450233 15.7692 0.482962 15.7462 0.516682 15.7224C0.781718 15.5651 1.09187 15.589 1.3891 15.6187C1.69706 15.7147 1.873 15.8833 2.02871 16.1612C2.09967 16.3126 2.12634 16.4358 2.1278 16.601C2.12827 16.6422 2.12875 16.6834 2.12924 16.7258C2.12966 16.7934 2.12966 16.7934 2.13009 16.8623C2.13057 16.9099 2.13106 16.9574 2.13155 17.0064C2.13309 17.1638 2.1343 17.3212 2.1355 17.4786C2.13651 17.5877 2.13753 17.6967 2.13857 17.8058C2.14126 18.093 2.14367 18.3802 2.14602 18.6674C2.14847 18.9604 2.15118 19.2534 2.15387 19.5464C2.15912 20.1214 2.16406 20.6965 2.16882 21.2715C2.20688 21.2333 2.24495 21.1951 2.28417 21.1557C3.2107 20.226 4.13766 19.2966 5.06505 18.3677C5.51352 17.9185 5.96186 17.4692 6.40987 17.0195C6.80039 16.6275 7.19116 16.2358 7.58224 15.8444C7.78928 15.6372 7.99619 15.4298 8.2028 15.2222C8.39735 15.0266 8.59225 14.8314 8.78741 14.6365C8.85889 14.565 8.93024 14.4933 9.00145 14.4216C9.09893 14.3234 9.19686 14.2256 9.2949 14.128C9.33671 14.0855 9.33671 14.0855 9.37937 14.0422C9.79346 13.6326 10.3234 13.3357 10.9071 13.5994Z" fill="#B1B8BF"/>
<path d="M16.6644 0.0174289C16.7125 0.0171601 16.7125 0.0171601 16.7616 0.016886C16.8694 0.0163484 16.9771 0.0161609 17.0849 0.0159752C17.162 0.0156699 17.2392 0.015346 17.3164 0.0150048C17.57 0.0139796 17.8236 0.0134745 18.0773 0.012989C18.1646 0.0127917 18.252 0.0125911 18.3393 0.0123872C18.7497 0.0114587 19.1602 0.0107653 19.5706 0.0103594C20.0442 0.00988328 20.5177 0.0086011 20.9913 0.00663138C21.3574 0.00516073 21.7236 0.00443995 22.0897 0.00427863C22.3083 0.00416418 22.5269 0.00372867 22.7456 0.00250184C22.9514 0.0013656 23.1571 0.00116175 23.3629 0.00166178C23.4383 0.00168588 23.5136 0.00137893 23.589 0.000708792C23.9799 -0.00257225 24.2995 -0.00368703 24.6342 0.219525C24.7345 0.318701 24.7345 0.318701 24.8017 0.417496C24.8248 0.450223 24.8478 0.482951 24.8716 0.516671C24.9818 0.702303 24.9817 0.858868 24.9825 1.07023C24.9827 1.10232 24.9829 1.1344 24.9831 1.16746C24.9836 1.2752 24.9838 1.38293 24.984 1.49066C24.9843 1.56783 24.9846 1.645 24.9849 1.72216C24.986 1.97579 24.9865 2.22942 24.9869 2.48305C24.9871 2.5704 24.9873 2.65775 24.9875 2.7451C24.9885 3.15552 24.9892 3.56595 24.9896 3.97638C24.9901 4.44992 24.9913 4.92345 24.9933 5.39699C24.9948 5.76313 24.9955 6.12927 24.9957 6.49541C24.9958 6.71403 24.9962 6.93263 24.9974 7.15124C24.9986 7.35704 24.9988 7.56281 24.9983 7.76861C24.9983 7.84397 24.9986 7.91932 24.9992 7.99467C25.0025 8.3856 25.0036 8.70518 24.7804 9.03986C24.6812 9.14018 24.6812 9.14018 24.5824 9.20737C24.5497 9.23043 24.517 9.25348 24.4833 9.27724C24.2182 9.43451 23.9081 9.41063 23.6108 9.38098C23.3029 9.28491 23.1269 9.11636 22.9712 8.83846C22.9003 8.68704 22.8736 8.56383 22.8721 8.3987C22.8714 8.33689 22.8714 8.33689 22.8707 8.27384C22.8704 8.2288 22.8701 8.18375 22.8698 8.13735C22.8694 8.0898 22.8689 8.04224 22.8684 7.99325C22.8668 7.83584 22.8656 7.67843 22.8644 7.52101C22.8634 7.41196 22.8624 7.30292 22.8614 7.19387C22.8587 6.90666 22.8563 6.61946 22.8539 6.33225C22.8515 6.03926 22.8488 5.74626 22.8461 5.45327C22.8408 4.87824 22.8359 4.3032 22.8311 3.72817C22.774 3.78547 22.774 3.78547 22.7158 3.84393C21.7892 4.77369 20.8623 5.70302 19.9349 6.63192C19.4864 7.08113 19.0381 7.53049 18.5901 7.98016C18.1995 8.37213 17.8088 8.76383 17.4177 9.15523C17.2107 9.36246 17.0037 9.56981 16.7971 9.77747C16.6026 9.97302 16.4077 10.1682 16.2125 10.3632C16.141 10.4347 16.0697 10.5063 15.9985 10.5781C15.901 10.6763 15.8031 10.774 15.705 10.8717C15.6772 10.9 15.6493 10.9283 15.6206 10.9574C15.324 11.2508 15.0147 11.4802 14.5862 11.4916C14.2733 11.4875 14.0569 11.4166 13.8277 11.2012C13.5733 10.9204 13.499 10.6726 13.5086 10.2954C13.5826 9.61516 14.4012 9.03236 14.8597 8.57508C14.9299 8.50493 15 8.43476 15.0702 8.36458C15.2593 8.17542 15.4486 7.98641 15.638 7.79743C15.8363 7.59942 16.0345 7.40126 16.2327 7.20312C16.6074 6.82853 16.9823 6.45406 17.3572 6.07964C17.7843 5.65311 18.2113 5.22645 18.6382 4.79977C19.5159 3.92262 20.3937 3.04564 21.2717 2.16877C21.2115 2.16859 21.1513 2.16842 21.0893 2.16823C20.5214 2.16643 19.9536 2.16361 19.3857 2.15981C19.0938 2.15789 18.8019 2.15632 18.5099 2.15556C18.2281 2.15483 17.9462 2.15315 17.6644 2.15082C17.557 2.1501 17.4496 2.14972 17.3422 2.14967C17.1915 2.14956 17.0408 2.14824 16.8901 2.14664C16.8238 2.14701 16.8238 2.14701 16.7562 2.14738C16.3961 2.14151 16.1465 2.04153 15.8716 1.80938C15.6284 1.51757 15.5915 1.28556 15.6022 0.911089C15.631 0.640818 15.7074 0.463253 15.9083 0.278916C16.1626 0.0803794 16.3391 0.0186056 16.6644 0.0174289Z" fill="#B1B8BF"/>
</svg>
