<?xml version="1.0" encoding="UTF-8"?>
<svg version="1.1" xmlns="http://www.w3.org/2000/svg" width="512" height="512">
<path d="M0 0 C0.78567352 -0.00067474 1.57134705 -0.00134949 2.38082886 -0.00204468 C13.89708393 0.01368691 24.90954562 0.4219949 36.125 3.25 C37.21772217 3.50740967 37.21772217 3.50740967 38.33251953 3.77001953 C49.48002905 6.42238252 59.83489948 10.22866014 70.125 15.25 C70.76034668 15.55808594 71.39569336 15.86617187 72.05029297 16.18359375 C84.94251241 22.52284371 96.45860051 30.39525386 106.94140625 40.2421875 C109.1418143 42.31457132 109.1418143 42.31457132 111.70703125 44.296875 C138.71850254 66.11551094 154.85913445 105.56313344 158.91705322 139.133255 C159.53533317 145.42688935 159.37013929 151.80459863 159.375 158.125 C159.37567474 158.91034119 159.37634949 159.69568237 159.37704468 160.50482178 C159.36130076 172.02436764 158.97205105 183.03261885 156.125 194.25 C155.94807617 194.95141113 155.77115234 195.65282227 155.58886719 196.37548828 C150.34627483 216.68940186 141.91696731 236.50938684 129.125 253.25 C130.7977742 257.62661218 134.07591004 260.45221424 137.34716797 263.66748047 C137.98477051 264.30216248 138.62237305 264.93684448 139.27929688 265.59075928 C140.66302921 266.96688721 142.04906707 268.34069988 143.43712997 269.71245956 C145.6358478 271.88563099 147.82824046 274.06500604 150.01907349 276.24612427 C155.46292278 281.66323949 160.9175209 287.06949061 166.37182617 292.47607422 C170.97889855 297.04363973 175.58182915 301.61530366 180.17935562 306.19247818 C182.33563067 308.33581995 184.49785935 310.47302924 186.66036987 312.6100769 C187.98855794 313.93099615 189.31646391 315.25219914 190.64404297 316.57373047 C191.24366852 317.16302338 191.84329407 317.75231628 192.46109009 318.35946655 C198.54046554 324.43730576 202.24138421 329.63293304 202.4375 338.4375 C202.36629802 344.26311655 201.8834036 348.66912027 198.125 353.25 C192.68955084 358.23705194 188.38237777 360.39667037 180.9375 360.5625 C179.85082031 360.59988281 178.76414062 360.63726562 177.64453125 360.67578125 C169.64604788 359.70815119 164.34281282 355.04929253 158.8828125 349.46191406 C158.20864792 348.78833359 157.53448334 348.11475311 156.83988953 347.42076111 C154.63363361 345.21173831 152.44185391 342.98893058 150.25 340.765625 C148.71531389 339.2234716 147.17973706 337.68220414 145.64331055 336.14178467 C141.61658041 332.09983699 137.6020118 328.04601923 133.58990479 323.98956299 C129.48782323 319.84644538 125.37428837 315.71473365 121.26171875 311.58203125 C113.20493122 303.48244126 105.16095265 295.3702579 97.125 287.25 C92.98165454 288.82980853 89.66917499 290.8059672 86 293.3125 C63.93984871 307.87833346 36.78435842 317.19068296 10.2421875 317.48828125 C9.51392258 317.49812042 8.78565765 317.50795959 8.0353241 317.51809692 C-8.27501692 317.69298641 -24.02399488 317.58715383 -39.875 313.25 C-40.74044434 313.01394043 -41.60588867 312.77788086 -42.49755859 312.53466797 C-61.09548869 307.26032356 -78.48919925 298.98167307 -93.875 287.25 C-95.174375 286.26580078 -95.174375 286.26580078 -96.5 285.26171875 C-129.68394366 259.38861268 -151.46902733 222.23678706 -157.41210938 180.47583008 C-158.25814179 173.47682085 -158.11958636 166.41520825 -158.125 159.375 C-158.12567474 158.58932648 -158.12634949 157.80365295 -158.12704468 156.99417114 C-158.11130821 145.47434407 -157.69190695 134.47049453 -154.875 123.25 C-154.62556641 122.17322998 -154.62556641 122.17322998 -154.37109375 121.07470703 C-151.58855329 109.15873516 -147.23853244 98.22782058 -141.875 87.25 C-141.3078125 86.08597656 -140.740625 84.92195313 -140.15625 83.72265625 C-134.21432266 72.1611231 -126.68548098 61.84770514 -117.828125 52.35546875 C-116.23439276 50.63742539 -114.76041074 48.90134665 -113.3125 47.0625 C-85.70459613 15.20722631 -40.96709789 0.03150206 0 0 Z M-88.875 85.25 C-101.77217256 100.92474024 -111.11619587 121.0784841 -113.875 141.25 C-114.03935547 142.38501953 -114.03935547 142.38501953 -114.20703125 143.54296875 C-117.83797199 173.21985769 -110.28578637 204.47621369 -91.875 228.25 C-88.37975699 232.41502176 -84.64800621 236.33766564 -80.875 240.25 C-80.21886719 240.96929687 -79.56273437 241.68859375 -78.88671875 242.4296875 C-59.74173364 262.84553886 -31.0049517 273.0360675 -3.546875 274.5390625 C27.5728013 275.53297686 56.9929375 263.98425738 79.72265625 242.9609375 C102.40206935 221.39145167 115.58838067 192.35402371 116.42529297 160.99243164 C116.62680954 128.10089714 103.70716237 99.01522585 80.9375 75.6875 C59.73428842 54.5640805 30.40665984 43.2092342 0.625 42.875 C-34.70839957 43.27154037 -65.71135611 59.00368661 -88.875 85.25 Z " fill="#000000" transform="translate(233.875,75.75)"/>
</svg>
